<svg width="319" height="85" viewBox="0 0 319 85" fill="none" xmlns="http://www.w3.org/2000/svg">
<path d="M144.928 66.384C142.325 66.384 140.405 65.7013 139.168 64.336C137.973 62.928 137.376 61.2 137.376 59.152C137.376 58.256 137.483 57.2533 137.696 56.144C137.909 54.992 138.123 53.8827 138.336 52.816C138.592 51.7493 138.763 51.0667 138.848 50.768C139.189 49.2747 139.509 47.8027 139.808 46.352C140.107 44.9013 140.256 43.728 140.256 42.832C140.256 40.656 139.488 39.568 137.952 39.568C136.885 39.568 135.925 40.08 135.072 41.104C134.261 42.128 133.6 43.4507 133.088 45.072C131.808 51.7707 130.507 58.7467 129.184 66H119.968L128.736 25.168C127.243 25.04 124.427 24.6773 120.288 24.08L111.264 66H102.048L111.2 23.504C107.147 23.6747 103.989 24.72 101.728 26.64C99.4667 28.56 98.336 31.8667 98.336 36.56C98.336 38.1387 98.4853 39.248 98.784 39.888C99.0827 40.4853 99.232 40.8267 99.232 40.912C96.928 40.912 95.2 40.4427 94.048 39.504C92.9387 38.5227 92.384 36.9227 92.384 34.704C92.384 31.7173 93.1947 28.9653 94.816 26.448C96.4373 23.9307 98.9333 21.904 102.304 20.368C105.675 18.832 109.877 18.064 114.912 18.064C115.765 18.064 117.579 18.256 120.352 18.64C125.429 19.3653 129.376 19.728 132.192 19.728C135.861 19.728 138.443 19.216 139.936 18.192C139.296 19.3867 138.763 20.5173 138.336 21.584C137.952 22.6507 137.461 24.4 136.864 26.832C136.267 29.2213 135.499 32.7627 134.56 37.456C136.736 34.9813 139.275 33.744 142.176 33.744C144.352 33.744 146.08 34.3413 147.36 35.536C148.64 36.7307 149.28 38.544 149.28 40.976C149.28 42.2133 149.131 43.6 148.832 45.136C148.533 46.6293 148.107 48.464 147.552 50.64C147.211 51.9627 146.891 53.264 146.592 54.544C146.336 55.7813 146.208 56.7627 146.208 57.488C146.208 58.3413 146.4 59.0027 146.784 59.472C147.168 59.9413 147.829 60.176 148.768 60.176C150.048 60.176 151.072 59.728 151.84 58.832C152.608 57.8933 153.376 56.464 154.144 54.544H156.832C155.253 59.2373 153.419 62.3947 151.328 64.016C149.28 65.5947 147.147 66.384 144.928 66.384ZM163.149 66.384C160.034 66.384 157.602 65.5733 155.853 63.952C154.104 62.288 153.229 59.7067 153.229 56.208C153.229 53.264 153.805 50.0213 154.957 46.48C156.109 42.9387 157.986 39.888 160.589 37.328C163.192 34.7253 166.498 33.424 170.509 33.424C175.202 33.424 177.549 35.472 177.549 39.568C177.549 41.9573 176.866 44.1547 175.501 46.16C174.136 48.1653 172.322 49.7867 170.061 51.024C167.8 52.2187 165.389 52.9013 162.829 53.072C162.744 54.0107 162.701 54.6507 162.701 54.992C162.701 58.5333 164.024 60.304 166.669 60.304C167.864 60.304 169.144 59.984 170.509 59.344C171.874 58.704 173.112 57.8933 174.221 56.912C173.069 63.2267 169.378 66.384 163.149 66.384ZM163.277 50C164.898 49.9573 166.413 49.424 167.821 48.4C169.272 47.376 170.424 46.0747 171.277 44.496C172.173 42.8747 172.621 41.1893 172.621 39.44C172.621 37.6907 172.088 36.816 171.021 36.816C169.528 36.816 168.034 38.1813 166.541 40.912C165.09 43.6 164.002 46.6293 163.277 50ZM210.574 23.632H209.806C206.008 23.632 203.043 24.592 200.91 26.512C198.819 28.3893 197.774 31.7387 197.774 36.56C197.774 38.1387 197.923 39.248 198.222 39.888C198.52 40.4853 198.67 40.8267 198.67 40.912C196.366 40.912 194.638 40.4427 193.486 39.504C192.376 38.5227 191.822 36.9227 191.822 34.704C191.822 31.6747 192.568 28.9227 194.062 26.448C195.555 23.9307 197.923 21.904 201.166 20.368C204.451 18.832 208.611 18.064 213.646 18.064C216.462 18.064 219.491 18.32 222.734 18.832C225.464 19.3013 227.896 19.536 230.03 19.536C232.76 19.536 235.235 19.088 237.454 18.192C237.368 20.9653 236.664 23.0133 235.342 24.336C234.019 25.6587 232.056 26.32 229.454 26.32C228.088 26.32 226.723 26.2133 225.358 26C223.992 25.7867 222.051 25.424 219.534 24.912L210.702 66H201.486L210.574 23.632ZM228.586 66.384C226.538 66.384 224.874 65.744 223.594 64.464C222.357 63.184 221.738 61.264 221.738 58.704C221.738 57.6373 221.909 56.2507 222.25 54.544L226.602 34H235.818L231.21 55.76C231.082 56.4 231.018 56.9973 231.018 57.552C231.018 59.3013 231.658 60.176 232.938 60.176C234.133 60.176 235.157 59.6853 236.01 58.704C236.863 57.68 237.546 56.2933 238.058 54.544L242.41 34H251.626L247.018 55.76C246.847 56.4 246.762 57.0827 246.762 57.808C246.762 58.6613 246.954 59.28 247.338 59.664C247.765 60.0053 248.447 60.176 249.386 60.176C250.581 60.176 251.605 59.664 252.458 58.64C253.354 57.616 254.058 56.2507 254.57 54.544H257.258C255.679 59.152 253.717 62.288 251.37 63.952C249.066 65.5733 246.741 66.384 244.394 66.384C242.559 66.384 241.087 65.872 239.978 64.848C238.911 63.824 238.271 62.3093 238.058 60.304C236.607 62.6507 235.071 64.2507 233.45 65.104C231.871 65.9573 230.25 66.384 228.586 66.384ZM260.899 66.384C258.851 66.384 257.187 65.744 255.907 64.464C254.669 63.184 254.05 61.264 254.05 58.704C254.05 57.6373 254.221 56.2507 254.562 54.544L261.411 22.48L270.883 21.2L263.523 55.76C263.352 56.4 263.267 57.0827 263.267 57.808C263.267 58.6613 263.459 59.28 263.843 59.664C264.269 60.0053 264.952 60.176 265.891 60.176C267.128 60.176 268.28 59.664 269.347 58.64C270.413 57.5733 271.181 56.208 271.651 54.544H274.339C272.76 59.152 270.733 62.288 268.259 63.952C265.784 65.5733 263.331 66.384 260.899 66.384ZM282.313 30.544C280.905 30.544 279.71 30.0533 278.729 29.072C277.748 28.0907 277.257 26.896 277.257 25.488C277.257 24.08 277.748 22.8853 278.729 21.904C279.71 20.88 280.905 20.368 282.313 20.368C283.721 20.368 284.916 20.88 285.897 21.904C286.921 22.8853 287.433 24.08 287.433 25.488C287.433 26.896 286.921 28.0907 285.897 29.072C284.916 30.0533 283.721 30.544 282.313 30.544ZM277.961 66.384C275.913 66.384 274.249 65.744 272.969 64.464C271.732 63.184 271.113 61.264 271.113 58.704C271.113 57.6373 271.284 56.2507 271.625 54.544L275.977 34H285.193L280.585 55.76C280.414 56.4 280.329 57.0827 280.329 57.808C280.329 58.6613 280.521 59.28 280.905 59.664C281.332 60.0053 282.014 60.176 282.953 60.176C284.19 60.176 285.342 59.664 286.409 58.64C287.476 57.5733 288.244 56.208 288.713 54.544H291.401C289.822 59.152 287.796 62.288 285.321 63.952C282.846 65.5733 280.393 66.384 277.961 66.384ZM293.552 31.632H302.768L301.744 36.432C303.877 34.5973 306.373 33.68 309.232 33.68C311.621 33.68 313.52 34.4693 314.928 36.048C316.336 37.6267 317.04 40.208 317.04 43.792C317.04 47.1627 316.549 50.576 315.568 54.032C314.586 57.4453 312.922 60.368 310.576 62.8C308.229 65.1893 305.136 66.384 301.296 66.384C298.565 66.384 296.752 65.616 295.856 64.08L292.528 79.696L282.863 82L293.552 31.632ZM299.312 60.816C301.36 60.816 303.045 59.856 304.368 57.936C305.733 56.016 306.714 53.7333 307.312 51.088C307.952 48.4 308.272 45.904 308.272 43.6C308.272 40.0587 307.205 38.288 305.072 38.288C304.304 38.288 303.514 38.5653 302.704 39.12C301.936 39.6747 301.253 40.4427 300.656 41.424L296.88 59.344C297.221 60.3253 298.032 60.816 299.312 60.816Z" fill="white"/>
<g clip-path="url(#clip0_1512_4)">
<path d="M33.2742 84.0341C33.2742 84.0341 14.366 87.3283 4.63903 63.7419C0.56501 53.859 -0.409652 46.7636 0.116658 17.3682C0.116658 17.3682 20.5648 15.146 29.3561 37.1925C38.1474 59.239 31.5782 67.7964 31.5782 67.7964L23.0209 69.7457L31.8122 72.4943C33.4219 76.114 33.9303 80.1274 33.2742 84.0341Z" fill="#F47920"/>
<path d="M35.5743 84.0343C35.5743 84.0343 54.8333 87.4651 64.1315 63.6642C70.5446 47.4461 69.2386 29.3762 68.7123 0.000294626C68.7123 0.000294626 48.2642 -2.22193 39.4729 19.8246C30.6816 41.8711 37.1922 67.7187 37.1922 67.7187L45.7496 69.668L36.9583 72.4165C35.3596 76.0674 34.878 80.11 35.5743 84.0343Z" fill="#F47920"/>
</g>
<defs>
<clipPath id="clip0_1512_4">
<rect width="69.2779" height="84.19" fill="white"/>
</clipPath>
</defs>
</svg>
